Coordinates
version=1
nRows=5
nColumns=63
inDegrees=yes

Units are S.I. units (second, meters, Newtons, ...)
If the header above contains a line with 'inDegrees', this indicates whether rotational values are in degrees (yes) or radians (no).

endheader
time	pelvis_tilt	pelvis_list	pelvis_rotation	pelvis_tx	pelvis_ty	pelvis_tz	hip_flexion_r	hip_adduction_r	hip_rotation_r	knee_angle_r	knee_angle_r_beta	ankle_angle_r	subtalar_angle_r	mtp_angle_r	hip_flexion_l	hip_adduction_l	hip_rotation_l	knee_angle_l	knee_angle_l_beta	ankle_angle_l	subtalar_angle_l	mtp_angle_l	L5_S1_Flex_Ext	L5_S1_Lat_Bending	L5_S1_axial_rotation	L4_L5_Flex_Ext	L4_L5_Lat_Bending	L4_L5_axial_rotation	L3_L4_Flex_Ext	L3_L4_Lat_Bending	L3_L4_axial_rotation	L2_L3_Flex_Ext	L2_L3_Lat_Bending	L2_L3_axial_rotation	L1_L2_Flex_Ext	L1_L2_Lat_Bending	L1_L2_axial_rotation	L1_T12_Flex_Ext	L1_T12_Lat_Bending	L1_T12_axial_rotation	Abs_r3	Abs_r2	Abs_r1	Abs_t1	Abs_t2	neck_flexion	neck_bending	neck_rotation	arm_flex_r	arm_add_r	arm_rot_r	elbow_flex_r	pro_sup_r	wrist_flex_r	wrist_dev_r	arm_flex_l	arm_add_l	arm_rot_l	elbow_flex_l	pro_sup_l	wrist_flex_l	wrist_dev_l
      5.25000000	     -4.77005868	      3.05238165	     89.85351793	      0.26283860	      0.84948801	      0.75487923	     10.10770098	     -6.24821207	    -12.34785188	     33.46718833	      0.58411263	     46.60878509	     18.94553206	      0.00000000	     13.65763618	     -3.29720370	     -6.14042022	     34.26945319	      0.59811479	     49.42728645	     17.81407790	      0.00000000	     -0.24499800	      0.05084897	      0.62097435	     -0.45498579	      0.06762913	      0.65978525	     -0.40250722	      0.12363419	      0.65978525	     -0.28000822	      0.12363419	      0.54335256	     -0.22750515	      0.10369122	      0.50454166	     -0.13999186	      0.07876506	      0.46573076	     -1.74999624	      0.57521374	      3.45367305	      0.00000000	      0.00000000	     21.74953606	     -3.12448696	      0.16664715	     -9.22593512	    -50.15565249	     63.81644230	     12.00138523	      6.30322424	     -0.74130654	     -2.48732206	      4.48023231	    -53.41977014	    135.34411044	      1.26542925	      5.72442729	    -13.11004487	    -11.20696498
      5.26666667	     -4.76757620	      3.13085750	     90.05187090	      0.26280802	      0.85193953	      0.75500741	      9.48820332	     -6.10590592	    -12.74903362	     32.13945627	      0.56093933	     46.34317147	     18.88430800	      0.00000000	     13.01478931	     -3.08630331	     -5.91001069	     32.98674204	      0.57572726	     48.90764209	     17.63082317	      0.00000000	     -0.27257666	      0.06144356	      0.65700326	     -0.50620211	      0.08171994	      0.69806596	     -0.44781619	      0.14939388	      0.69806596	     -0.31152786	      0.14939388	      0.57487785	     -0.25311469	      0.12529571	      0.53381515	     -0.15575030	      0.09517608	      0.49275244	     -1.94698782	      0.69506187	      3.65405503	      0.00000000	      0.00000000	     22.09655865	     -3.57488491	      0.06196309	     -8.75947769	    -48.91342098	     71.04726010	     11.33322047	      6.67983635	     -0.68621041	     -6.35566306	      4.51414282	    -51.97283908	    126.95125468	      1.50135923	      3.09028814	     -8.04174633	    -15.72365065
      5.28333333	     -4.79174532	      3.40688281	     90.20155245	      0.26296858	      0.85466710	      0.75496628	      8.59862046	     -5.94367125	    -13.02396878	     30.65214725	      0.53498089	     46.10974935	     18.82075799	      0.00000000	     12.06177885	     -2.86896310	     -5.75508916	     31.51102900	      0.54997121	     48.36835972	     17.41812669	      0.00000000	     -0.31510803	      0.06975536	      0.69512784	     -0.58518712	      0.09277463	      0.73857333	     -0.51769098	      0.16960319	      0.73857333	     -0.36013697	      0.16960319	      0.60823686	     -0.29260932	      0.14224514	      0.56479137	     -0.18005273	      0.10805106	      0.52134588	     -2.25078514	      0.78908663	      3.86609252	      0.00000000	      0.00000000	     22.23532620	     -4.20163559	     -0.18779383	     -9.23974950	    -47.92600562	     71.90569259	     12.09683288	      7.00799916	     -0.81788763	     -9.67980103	      4.57398656	    -50.53252707	    126.89033451	      1.50493070	      2.16831284	     -5.96932799	    -18.39182588
      5.30000000	     -5.00183123	      3.51413230	     90.34452127	      0.26344834	      0.85722145	      0.75501988	      7.90835082	     -5.94417516	    -13.21035355	     29.17842018	      0.50925950	     45.86193477	     18.70209184	      0.00000000	     11.36024917	     -2.47054331	     -5.54982175	     30.16502229	      0.52647896	     47.70042050	     17.09410722	      0.00000000	     -0.32558105	      0.04761177	      0.71232751	     -0.60463656	      0.06332365	      0.75684798	     -0.53489710	      0.11576325	      0.75684798	     -0.37210658	      0.11576325	      0.62328657	     -0.30233456	      0.09708992	      0.57876610	     -0.18603701	      0.07375063	      0.53424563	     -2.32559285	      0.53859383	      3.96175191	      0.00000000	      0.00000000	     22.43497615	     -4.52924774	     -0.55073794	     -7.59492457	    -45.69668950	     94.48150458	      8.52418095	      3.13195865	     -2.26214443	    -14.71571851	      4.25547266	    -49.27369742	    126.18107007	      1.52145563	      1.70836800	     -2.33555106	    -20.90102231
      5.31666667	     -5.16792418	      3.78794273	     90.41189676	      0.26362920	      0.86035415	      0.75500078	      6.92097967	     -5.86503276	    -13.26337298	     27.46605074	      0.47937302	     45.41553291	     18.58872622	      0.00000000	     10.38579178	     -2.07886894	     -5.34015339	     28.63944132	      0.49985255	     46.96872314	     16.70651672	      0.00000000	     -0.35101952	      0.03970391	      0.71157237	     -0.65187835	      0.05280620	      0.75604565	     -0.57668997	      0.09653609	      0.75604565	     -0.40118021	      0.09653609	      0.62262583	     -0.32595673	      0.08096422	      0.57815255	     -0.20057255	      0.06150136	      0.53367928	     -2.50729735	      0.44913859	      3.95755207	      0.00000000	      0.00000000	     22.32765547	     -4.66868193	     -0.37817011	     -7.98115033	    -44.90874166	     93.95606605	      9.77715859	      3.23701559	     -1.70774106	    -17.83059003	      3.79480722	    -47.76971249	    127.86828875	      1.33419643	      1.48126877	     -0.19983617	    -22.59464332
